<?xml version="1.0" encoding="UTF-8" standalone="no"?>
<!-- Created with Inkscape (http://www.inkscape.org/) -->

<svg
   xmlns:dc="http://purl.org/dc/elements/1.1/"
   xmlns:cc="http://creativecommons.org/ns#"
   xmlns:rdf="http://www.w3.org/1999/02/22-rdf-syntax-ns#"
   xmlns:svg="http://www.w3.org/2000/svg"
   xmlns="http://www.w3.org/2000/svg"
   xmlns:sodipodi="http://sodipodi.sourceforge.net/DTD/sodipodi-0.dtd"
   xmlns:inkscape="http://www.inkscape.org/namespaces/inkscape"
   width="744.09448819"
   height="1052.3622047"
   id="svg2"
   version="1.1"
   inkscape:version="0.48.4 r9939"
   sodipodi:docname="New document 1">
  <defs
     id="defs4" />
  <sodipodi:namedview
     id="base"
     pagecolor="#ffffff"
     bordercolor="#666666"
     borderopacity="1.0"
     inkscape:pageopacity="0.0"
     inkscape:pageshadow="2"
     inkscape:zoom="0.49497475"
     inkscape:cx="693.68941"
     inkscape:cy="599.32128"
     inkscape:document-units="px"
     inkscape:current-layer="layer1"
     showgrid="false"
     inkscape:snap-nodes="false"
     inkscape:window-width="1332"
     inkscape:window-height="750"
     inkscape:window-x="34"
     inkscape:window-y="18"
     inkscape:window-maximized="1" />
  <metadata
     id="metadata7">
    <rdf:RDF>
      <cc:Work
         rdf:about="">
        <dc:format>image/svg+xml</dc:format>
        <dc:type
           rdf:resource="http://purl.org/dc/dcmitype/StillImage" />
        <dc:title></dc:title>
      </cc:Work>
    </rdf:RDF>
  </metadata>
  <g
     inkscape:label="Layer 1"
     inkscape:groupmode="layer"
     id="layer1"
     style="display:inline">
    <path
       style="font-size:medium;font-style:normal;font-variant:normal;font-weight:normal;font-stretch:normal;text-indent:0;text-align:start;text-decoration:none;line-height:normal;letter-spacing:normal;word-spacing:normal;text-transform:none;direction:ltr;block-progression:tb;writing-mode:lr-tb;text-anchor:start;baseline-shift:baseline;color:#000000;fill:#000000;fill-opacity:1;fill-rule:nonzero;stroke:#000000;stroke-width:3;stroke-miterlimit:4;stroke-opacity:1;stroke-dasharray:none;marker:none;visibility:visible;display:inline;overflow:visible;enable-background:accumulate;font-family:Sans;-inkscape-font-specification:Sans"
       d="m 338.4375,393.4375 0.1875,0.28125 c -0.17498,0.0574 -0.36988,0.0275 -0.53125,0.125 -0.75713,0.45763 -1.1952,1.30551 -1.5,2.28125 l -10.9375,8.96875 -0.15625,0.125 -0.15625,0.0937 -0.0312,0.21875 -0.0312,0.21875 -9.09375,89.90625 0,0.0312 0,0.0312 0,0.0312 0,0.0312 0,0.0312 1,19.21875 0,0.0312 0,0.0312 0.0312,0.1875 0.0312,0.15625 0.125,0.0937 0.125,0.125 16,15.96875 23.1875,46.34375 0.0312,0.0625 0,0.0312 0.0625,0.1875 0.125,0.0625 0.0625,0.0312 25.1875,24.21875 0.28125,0.25 0.25,0.21875 0.3125,-0.15625 0.3125,-0.15625 0.0312,0 9.09375,-5.0625 0.21875,-0.125 0.21875,-0.125 0.0312,-0.25 0.0312,-0.1875 0,-0.0312 19.1875,-114.125 0.0625,-0.34375 0.0625,-0.34375 -0.3125,-0.1875 -0.3125,-0.1875 c -15.59356,-8.56832 -33.07086,-34.25693 -46.9375,-55.65625 -6.93313,-10.69936 -12.94865,-20.33302 -17.625,-26.28125 -2.33689,-2.97248 -4.29407,-5.02356 -6.125,-5.90625 -0.46621,-0.22476 -0.94742,-0.38318 -1.4375,-0.40625 l -1.0625,-0.0625 z m 1.25,1.125 c 0.26002,0.0421 0.52905,0.0821 0.8125,0.21875 0.75173,0.36241 1.60853,1.05936 2.5625,2 0.96849,0.95496 2.02558,2.17832 3.1875,3.65625 -1.15369,-1.46747 -2.2306,-2.70403 -3.1875,-3.65625 -0.9569,-0.95222 -1.80537,-1.60374 -2.5625,-1.96875 -0.28948,-0.13956 -0.5552,-0.20328 -0.8125,-0.25 z m -1.5,0.8125 c -0.27006,0.34653 -0.57517,0.64976 -0.75,1.28125 l 0.0312,-0.0937 c 0.17582,-0.61118 0.46004,-0.84776 0.71875,-1.1875 z m 1.21875,0.125 c 0.14264,0.0108 0.35863,0.044 0.65625,0.1875 1.14397,0.5515 3.10374,2.48601 5.375,5.375 4.54607,5.7825 10.65249,15.41308 17.59375,26.125 13.69846,21.13977 30.66993,46.4931 46.96875,55.875 l -19,113.09375 -7.96875,4.4375 -24.71875,-23.71875 -23.03125,-46.125 -0.0312,-0.0625 0,-0.0312 -0.0625,-0.1875 -0.1875,-0.0937 -15.8125,-15.84375 -1,-18.71875 0,-0.0312 0,-0.0312 9.03125,-89.375 10.8125,-8.84375 0,0.0312 0.125,-0.0937 0.125,-0.125 0.0625,-0.1875 0.0312,-0.125 0,-0.0312 c 0.24034,-0.91145 0.57668,-1.35163 0.71875,-1.4375 0.0929,-0.0562 0.16986,-0.0733 0.3125,-0.0625 z m -2.03125,1.28125 0,0.0312 -10.9375,8.9375 -0.15625,0.125 0,-0.0312 11.03125,-9.03125 0.0625,-0.0312 z m 37.46875,46.40625 c 3.82818,5.56268 7.80512,11.04846 11.84375,16.15625 -4.04158,-5.10633 -8.01304,-10.59334 -11.84375,-16.15625 z m -56.65625,71.75 0.15625,0.125 L 334.25,531 l -16.0625,-16.03125 0,-0.0312 z m 16.125,16.125 0.0312,0 0,0.0312 -0.0312,-0.0312 z m 0.0312,0.0625 0.0312,0 15.4375,30.90625 -15.4375,-30.84375 -0.0312,-0.0625 z"
       id="path3265"
       inkscape:connector-curvature="0" />
    <path
       style="fill:none;stroke:#000000;stroke-width:3;stroke-linecap:butt;stroke-linejoin:miter;stroke-miterlimit:4;stroke-opacity:1;stroke-dasharray:none"
       d="m 308.09653,255.35182 -28.28427,65.65992 -18.18275,37.37564 -8.08122,19.1929 -3.03046,15.15229 -9.09137,33.33503 -10.10153,37.37565 -7.07106,12.12183 -3.03046,34.34519 27.27412,67.68022 42.4264,57.57869 25.25382,43.43656 16.16244,17.17259 17.17259,24.24367 3.03046,3.03045 20.20305,7.07107 15.15229,21.2132 24.24366,-7.07106 2.0203,-27.27412 2.02031,-33.33504 18.18274,-36.36549 13.13199,-25.25381 25.25381,-27.27412 13.13198,-26.26397 14.14214,-46.46701 4.04061,-46.46702 -4.04061,-31.31473 5.05076,-31.31473 2.02031,-7.07107 -47.47717,-29.29442 -39.39595,-21.2132 -24.24366,-15.15229 -23.23351,-20.20305 -27.27412,-33.33504 -12.12183,-14.14213 c -23.23351,-19.1929 -25.25381,-17.1726 -25.25381,-17.1726 z"
       id="path4043"
       inkscape:connector-curvature="0" />
    <path
       style="fill:none;stroke:#000000;stroke-width:3;stroke-linecap:butt;stroke-linejoin:miter;stroke-miterlimit:4;stroke-opacity:1;stroke-dasharray:none"
       d="m 327.28942,330.10311 c -5.75273,2.31136 -8.84009,-1.59647 -18.18274,9.09138 l -3.03046,19.19289 -8.08122,25.25382 -9.09137,30.30457 -8.08122,37.37565 -4.04062,45.96194 c -2.09333,17.98261 -4.95938,22.58573 -3.03045,31.8198 3.19904,5.89278 20.72474,26.11222 32.32488,40.40611 l 27.27412,41.41625 10.10153,27.27412 c 5.48543,9.24565 12.09442,18.71601 24.24366,29.29442 l 15.15228,4.04061 21.21321,-43.43656 26.26396,-49.49747 18.18275,-79.80205 -2.0203,-61.61931 -4.04062,-16.16244 c -6.38043,-5.67341 -10.1227,-9.45227 -35.86041,-23.23351 -21.45012,-4.9038 -33.01811,-3.04831 -54.04316,-26.26396 z"
       id="path4045"
       inkscape:connector-curvature="0"
       sodipodi:nodetypes="ccccccccccccccccccccc" />
    <path
       style="fill:#0018f8;fill-opacity:1;stroke:#000000;stroke-width:1.51522887;stroke-miterlimit:4;stroke-opacity:1;stroke-dasharray:none"
       d=""
       id="path4047"
       inkscape:connector-curvature="0" />
    <path
       style="fill:#0018f8;fill-opacity:1;stroke:#000000;stroke-width:1.51522887;stroke-miterlimit:4;stroke-opacity:1;stroke-dasharray:none"
       d=""
       id="path4049"
       inkscape:connector-curvature="0" />
    <path
       style="fill:#0014f8;fill-opacity:1;stroke:#020dfc;stroke-width:1.51522887;stroke-miterlimit:4;stroke-opacity:1;stroke-dasharray:none"
       d="m 358.00204,478.65107 c 0.0242,-0.58838 0.14392,-0.70806 0.30515,-0.30515 0.1459,0.3646 0.12796,0.80023 -0.0399,0.96807 -0.16784,0.16783 -0.28721,-0.13048 -0.26528,-0.66292 z"
       id="path4053"
       inkscape:connector-curvature="0" />
    <path
       style="fill:#0014f8;fill-opacity:1;stroke:#020dfc;stroke-width:1.51522887;stroke-miterlimit:4;stroke-opacity:1;stroke-dasharray:none"
       d=""
       id="path4055"
       inkscape:connector-curvature="0" />
    <path
       style="fill:#0014f8;fill-opacity:1;stroke:#020dfc;stroke-width:1.51522887;stroke-miterlimit:4;stroke-opacity:1;stroke-dasharray:none"
       d="m 371.34669,586.90336 -11.61676,-11.20557 -11.41746,-22.99596 -11.41746,-22.99596 -8.01446,-7.92864 -8.01445,-7.92864 -0.45256,-9.06833 -0.45256,-9.06833 4.45992,-44.19504 4.45992,-44.19505 5.48561,-4.4679 c 3.01709,-2.45735 5.66316,-4.53254 5.88017,-4.61153 0.48834,-0.17776 5.64745,6.3432 9.30431,11.76038 1.50019,2.22233 7.66607,11.535 13.70196,20.69481 19.01222,28.85215 29.83109,42.2211 40.92446,50.57064 2.08306,1.56784 3.78739,2.96218 3.78739,3.09854 0,0.42839 -18.16644,108.41754 -18.43073,109.5602 -0.22208,0.96016 -5.06626,4.24962 -6.18409,4.19934 -0.21255,-0.01 -5.614,-5.0599 -12.00321,-11.22296 z M 359.4774,479.27652 c 0,-0.65143 -0.44384,-1.58608 -0.98631,-2.077 -0.9523,-0.86182 -0.9977,-0.84715 -1.31716,0.42566 -0.44495,1.77285 0.0339,2.83575 1.27746,2.83575 0.73961,0 1.02601,-0.33062 1.02601,-1.18441 z"
       id="path4057"
       inkscape:connector-curvature="0" />
    <path
       style="fill:#c302f1;fill-opacity:1;stroke:#b600ee;stroke-width:1.51522887;stroke-miterlimit:4;stroke-opacity:1;stroke-dasharray:none"
       d="m 262.7174,436.83918 c 0.0379,-1.69898 1.30058,-3.74519 1.30058,-2.10757 0,0.42764 0.22728,0.77753 0.50508,0.77753 0.70336,0 0.63293,1.69042 -0.10102,2.42437 -1.07814,1.07814 -1.74354,0.65098 -1.70464,-1.09433 z"
       id="path4059"
       inkscape:connector-curvature="0" />
    <path
       style="fill:#c302f1;fill-opacity:1;stroke:#b600ee;stroke-width:1.51522887;stroke-miterlimit:4;stroke-opacity:1;stroke-dasharray:none"
       d="m 342.05226,706.35029 c -6.64197,-9.43546 -9.52848,-13.00964 -16.20743,-20.06856 l -8.12621,-8.58852 -12.64508,-21.7599 -12.64507,-21.7599 -21.17973,-28.74773 -21.17973,-28.74772 -13.53032,-33.55662 -13.53032,-33.55662 1.46999,-16.69847 1.46999,-16.69847 3.44069,-5.80838 3.44068,-5.80837 9.54859,-35.1028 c 5.25172,-19.30654 10.32659,-38.853 11.27748,-43.43656 1.50931,-7.27527 2.23876,-9.52921 5.74312,-17.74588 2.20783,-5.17667 8.08497,-17.79095 13.06033,-28.03174 5.27467,-10.85684 14.82255,-32.0336 22.90134,-50.79412 l 13.85523,-32.17451 2.27609,1.30828 c 3.16116,1.81701 9.1344,6.11755 15.27068,10.99441 5.93624,4.71788 9.93071,9.22117 30.83281,34.76026 l 13.96178,17.05912 11.59142,10.08245 c 10.64592,9.26004 12.55307,10.68558 23.38081,17.47653 6.48416,4.06674 20.65347,12.16874 31.48736,18.00444 13.30524,7.16689 27.15615,15.19626 42.67894,24.74093 12.63953,7.77182 23.25504,14.38931 23.59001,14.70554 0.47402,0.44749 0.40627,1.35873 -0.30558,4.11049 -0.50304,1.94454 -1.99896,10.35406 -3.32427,18.68782 l -2.40965,15.15229 2.03437,15.66696 2.03438,15.66697 -2.00984,22.97137 -2.00985,22.97137 -7.06433,23.17557 -7.06433,23.17557 -6.49969,12.93738 -6.49968,12.93738 -12.43077,13.38452 c -14.51507,15.62874 -11.66227,11.04843 -31.84745,51.13277 l -12.39596,24.61626 -0.98565,15.78984 c -0.54211,8.68441 -0.98821,16.52852 -0.99133,17.43134 l -0.006,1.6415 -31.18846,-0.008 -31.18846,-0.008 -8.08122,-11.48003 0,1e-5 z m 51.77328,-53.24311 c 5.41532,-11.16109 16.18227,-32.24171 23.92656,-46.84583 l 14.08052,-26.55293 9.22708,-40.4061 9.22709,-40.40611 -0.94797,-30.30457 -0.94795,-30.30458 -2.1566,-9.05465 c -2.10256,-8.82777 -2.20722,-9.1021 -4.1769,-10.94794 -5.12964,-4.80709 -13.2446,-10.19422 -26.43875,-17.55138 l -8.13459,-4.53591 -10.23999,-2.07705 c -11.22397,-2.27664 -16.53008,-3.83608 -21.74491,-6.39075 -8.18737,-4.01087 -18.20666,-12.62166 -22.75215,-19.55369 -1.49123,-2.27417 -7.63814,-12.23826 -13.65982,-22.14244 l -10.94849,-18.00759 -2.63965,0.70274 c -1.45181,0.3865 -3.25616,0.70543 -4.00967,0.70873 -3.00329,0.0131 -6.87313,2.02937 -10.49202,5.46647 l -3.55705,3.37836 -1.5571,9.84899 c -1.33834,8.46527 -2.11314,11.58749 -5.51486,22.22335 -9.31098,29.11187 -13.05019,42.53488 -17.19103,61.71236 l -4.04599,18.7382 -1.98301,22.53045 c -2.13638,24.27287 -2.40112,26.59725 -4.36905,38.3598 -0.97911,5.85225 -1.24913,9.00372 -1.1035,12.87945 0.18238,4.85417 0.28462,5.26444 1.89305,7.59644 2.36691,3.43171 10.16214,13.17117 21.39014,26.7251 8.30514,10.0256 11.2984,14.18496 23.17472,32.20302 l 13.63778,20.69045 5.09661,13.75892 c 5.33665,14.40692 6.56072,16.79262 13.2733,25.86937 1.60281,2.16733 5.89328,6.99978 9.53439,10.73879 l 6.62019,6.79821 8.08123,2.18714 c 4.44467,1.20292 8.42348,2.20309 8.84179,2.2226 0.51331,0.0239 3.96157,-6.56186 10.6066,-20.25742 l 0,0 z M 265.25203,438.42721 c 0.87486,-1.24903 1.05955,-3.42315 0.2908,-3.42315 -0.2725,0 -0.63692,-0.56363 -0.80982,-1.25252 -0.25814,-1.02853 -0.47955,-1.16411 -1.2381,-0.75815 -1.41613,0.75789 -2.19283,4.51717 -1.24886,6.04455 0.54926,0.88872 2.18909,0.55556 3.00598,-0.61073 l 0,0 z"
       id="path4061"
       inkscape:connector-curvature="0" />
    <path
       style="fill:#fed104;fill-opacity:1;stroke:#b600ee;stroke-width:1.51522887;stroke-miterlimit:4;stroke-opacity:1;stroke-dasharray:none"
       d="m 374.65806,667.56432 c -6.26097,-1.70453 -6.29751,-1.72326 -9.52516,-4.88247 -6.28495,-6.1517 -11.69821,-12.60924 -15.89949,-18.96667 -4.01722,-6.07891 -4.52236,-7.16963 -9.29994,-20.08042 l -5.05199,-13.65235 -13.74238,-20.88575 c -11.05788,-16.80585 -15.18953,-22.62401 -21.15061,-29.78421 -11.47714,-13.78585 -22.30557,-27.36971 -23.67202,-29.69567 -1.67259,-2.84707 -1.67003,-7.59779 0.01,-17.84112 1.96434,-11.97958 2.22387,-14.26436 4.36032,-38.3858 l 1.99071,-22.47589 4.02493,-18.49235 c 4.13926,-19.01762 6.96171,-29.14504 16.4532,-59.03686 4.17145,-13.13724 4.89439,-15.97518 6.11155,-23.99112 l 1.38046,-9.09138 2.31798,-2.42171 c 3.07201,-3.20948 6.48427,-4.82591 10.5762,-5.01008 l 3.20746,-0.14435 12.30693,20.20305 12.30694,20.20305 5.67151,5.46812 c 6.1021,5.88325 13.08681,10.82036 18.85809,13.32975 4.65832,2.02547 9.47737,3.34503 20.72975,5.6763 9.21644,1.90946 9.35247,1.95711 16.00114,5.60465 13.39625,7.34936 26.05286,15.89852 27.86924,18.82483 0.37515,0.6044 1.50209,4.50817 2.5043,8.67505 l 1.82221,7.57614 0.98367,30.05204 0.98367,30.05204 -9.04846,39.71794 -9.04847,39.71793 -14.27669,26.99799 c -7.85219,14.84889 -18.36781,35.44329 -23.36807,45.76533 -5.00025,10.32204 -9.31866,18.74884 -9.59645,18.72621 -0.27779,-0.0226 -3.33336,-0.81112 -6.79015,-1.75222 l 0,0 z m 18.78571,-68.51666 c 0.76393,-0.53501 1.38896,-1.34636 1.38896,-1.80299 0,-0.45664 4.31841,-26.54853 9.59645,-57.98198 5.27805,-31.43345 9.59645,-57.37703 9.59645,-57.65241 0,-0.27538 -1.32662,-1.31954 -2.94806,-2.32034 -4.41872,-2.72739 -11.55136,-9.25779 -16.86643,-15.44233 -8.90821,-10.36547 -16.66541,-21.28078 -33.06127,-46.52121 -14.61442,-22.49803 -17.60767,-25.75889 -23.64484,-25.75889 -2.07156,0 -2.25682,0.0934 -1.81645,0.91629 0.64711,1.20913 -0.45404,2.47081 -6.26322,7.17628 -2.50013,2.02511 -4.82042,3.93062 -5.1562,4.23445 -0.39562,0.35799 -2.23432,16.46302 -5.22401,45.75675 l -4.61351,45.20432 0.55296,10.64378 0.55297,10.64378 8.12655,8.04404 8.12656,8.04405 11.76363,23.48604 11.76362,23.48605 5.23646,5.08489 c 2.88005,2.79668 8.95164,8.65711 13.49243,13.02317 l 8.25597,7.93828 4.87601,-2.61464 c 2.68181,-1.43805 5.50105,-3.05237 6.26497,-3.58738 l 0,0 z"
       id="path4063"
       inkscape:connector-curvature="0" />
    <path
       style="fill:#c302f1;fill-opacity:1;stroke:#b600ee;stroke-width:1.51522887;stroke-miterlimit:4;stroke-opacity:1;stroke-dasharray:none"
       d="m 386.72822,746.55573 c -1.08606,-1.48364 -4.41842,-6.12727 -7.40524,-10.31917 l -5.43058,-7.62166 -9.94344,-3.43372 c -7.31663,-2.52662 -10.34117,-3.81553 -11.44897,-4.87899 l -1.50551,-1.44526 30.72106,0 30.72107,0 -0.29219,2.39911 c -0.1607,1.31951 -0.52967,6.03566 -0.81993,10.48034 -0.29025,4.44467 -0.63887,8.7874 -0.7747,9.65051 l -0.24696,1.5693 -9.96591,2.91746 c -5.48126,1.6046 -10.34125,3.02144 -10.79998,3.14853 -0.56463,0.15644 -1.47192,-0.64029 -2.80872,-2.46645 z"
       id="path4065"
       inkscape:connector-curvature="0" />
    <path
       style="fill:none;stroke:#000000;stroke-width:3;stroke-linecap:butt;stroke-linejoin:miter;stroke-miterlimit:4;stroke-opacity:1;stroke-dasharray:none"
       d="m 275.71429,200.21932 -5,15 -5,7.14286 -7.14286,0 -6.42857,29.28572 -11.42857,38.57142 -14.28572,39.28572 -14.28571,38.57143 -6.42857,26.42857 -5.71429,25 -16.42857,27.85714 -7.85714,15 -5,1.42857 4.28571,36.42857 -2.14286,15.71429 10.71429,32.85714 8.57143,21.42857 6.42857,41.42858 8.57143,25.71428 20.71428,25 19.28572,22.14286 16.42857,14.28571 25.71428,51.42858 39.28572,47.85714 35.71428,39.28571 42.14286,32.14286 12.14286,-39.28572 c 2.76943,-18.44611 15.41509,-26.20269 14.99999,-48.57142 l 10.71429,-53.57143 16.42858,-67.85714 5,-20 8.57142,-15 c 11.46517,-5.88371 23.21447,-11.69639 42.14286,-15.71429 l 20.71429,-12.14286 15,-39.28571 5.71428,-38.57143 L 560,491.6479 l 1.42857,-54.28572 -0.71428,-35 -7.85715,-25 -6.42857,-22.14286 0.71429,-15.71428 c -16.81367,-9.53072 -30.32598,-13.55917 -41.42857,-13.57143 L 487.14285,315.21932 467.85714,301.6479 448.57143,292.36218 420.71429,275.93361 377.14286,256.6479 C 363.08521,248.35467 345.57821,242.54439 330.71429,233.79076 321.72223,228.49517 305,215.93361 305,215.93361 z"
       id="path4067"
       inkscape:connector-curvature="0"
       sodipodi:nodetypes="ccccccccccccccccccccccccccccccccccccccccccccccccacc" />
    <path
       style="fill:#07d286;fill-opacity:1;stroke:none"
       d=""
       id="path4069"
       inkscape:connector-curvature="0" />
    <path
       style="fill:#07d286;fill-opacity:1;stroke:none"
       d=""
       id="path4071"
       inkscape:connector-curvature="0" />
    <path
       style="fill:#07d286;fill-opacity:1;stroke:none"
       d="m 311.46866,774.24147 -20.44635,-24.82143 -13.0783,-26.08454 -13.0783,-26.08455 -7.92285,-6.7726 c -8.01228,-6.84906 -18.67915,-18.61733 -37.93116,-41.84771 l -9.91127,-11.95941 -4.33461,-12.55416 c -4.08844,-11.84116 -4.51802,-13.74142 -7.5638,-33.45825 -3.18984,-20.64942 -3.28019,-21.03229 -7.41598,-31.42857 -2.30274,-5.78848 -6.64152,-17.96588 -9.64174,-27.06089 l -5.45493,-16.5364 1.12695,-7.58564 c 1.0949,-7.36991 1.07475,-8.03723 -0.70852,-23.46361 -1.0095,-8.73288 -1.9753,-16.7011 -2.1462,-17.70716 -0.2632,-1.54934 0.0376,-1.93183 1.96581,-2.5 1.975,-0.58194 2.84684,-1.75886 6.58191,-8.88508 2.36795,-4.51786 7.90445,-14.32143 12.30335,-21.78572 l 7.99799,-13.57143 3.19423,-13.92857 c 6.78554,-29.5886 9.09117,-37.9627 14.34775,-52.11143 22.98875,-61.87699 32.23975,-90.41712 37.92193,-116.99255 l 2.78654,-13.03255 3.35354,-0.003 c 3.25306,-0.003 3.43922,-0.1228 6.21274,-3.99598 1.61259,-2.25195 3.69267,-6.53407 4.77087,-9.82142 1.05142,-3.20574 2.15319,-6.09398 2.44838,-6.41832 0.79817,-0.87699 26.56345,13.28087 33.57161,18.44737 15.00156,11.05934 23.30448,15.85704 42.85714,24.76431 6.875,3.13192 14.58929,6.8361 17.14286,8.23151 2.55357,1.3954 14.71154,6.99749 27.01771,12.44907 17.2336,7.63442 25.56499,11.79742 36.2584,18.11743 7.63595,4.513 18.16063,10.24752 23.38818,12.74338 6.07989,2.9028 13.0275,7.01901 19.28167,11.42367 11.47174,8.07929 27.77408,17.62722 30.0971,17.62722 7.48173,0 21.5534,4.34281 32.97153,10.17569 l 5.8003,2.96305 -0.33927,7.53777 c -0.33441,7.42982 -0.28646,7.71682 3.34756,20.03778 2.02776,6.875 5.24239,17.48214 7.14364,23.57143 l 3.45682,11.07143 0.41353,16.42857 c 0.50314,19.98846 -0.60808,64.67861 -2.10464,84.64286 -0.60372,8.05357 -2.37923,23.35231 -3.94559,33.9972 l -2.84794,19.35435 -7.34803,19.21708 -7.34803,19.21708 -5.65718,3.42255 c -11.4246,6.91178 -14.77655,8.55709 -20.15938,9.89532 -8.70997,2.16539 -17.6163,5.46024 -27.69277,10.24481 l -9.33781,4.43383 -4.57961,8.1446 -4.57961,8.1446 -9.83244,40.35715 c -10.35186,42.4891 -20.62095,90.93268 -22.33367,105.35714 -0.55976,4.71429 -1.38248,9.61607 -1.82827,10.89286 l -0.81052,2.32143 -48.46746,0 -48.46746,0 -20.44635,-24.82143 0,0 z m 88.84966,-24.53837 c 6.92997,-2.00503 12.82253,-3.85325 13.09459,-4.10715 0.5212,-0.48638 2.15945,-21 3.6877,-46.17591 l 0.91055,-15 15.28808,-30.35714 15.28809,-30.35715 12.99836,-13.9949 12.99837,-13.9949 6.3962,-12.79081 c 5.95045,-11.89946 6.89884,-14.44062 13.6092,-36.46519 l 7.213,-23.67437 2.08065,-23.60077 2.08063,-23.60076 -2.04212,-15.58201 -2.04212,-15.582 2.50021,-15.35714 c 1.37512,-8.44643 3.02308,-17.22607 3.66213,-19.51031 0.99447,-3.55464 1.01782,-4.2855 0.16202,-5.07144 -3.02822,-2.781 -50.27713,-30.99636 -67.07648,-40.05568 -29.15092,-15.72009 -41.99657,-24.01038 -55.64811,-35.91405 -10.15808,-8.8575 -12.90439,-11.79935 -26.52572,-28.41449 -8.35696,-10.19372 -17.26984,-20.91821 -19.80641,-23.83219 -7.43671,-8.5432 -25.82006,-22.23259 -30.14454,-22.4475 l -2.24338,-0.11149 -14.82785,34.28572 c -8.15531,18.85714 -18.6025,42 -23.21596,51.42857 -11.6481,23.80535 -16.5332,35.63798 -18.28336,44.28571 -0.79508,3.92857 -5.82132,23.32757 -11.16943,43.1089 -9.23613,34.16213 -9.90065,36.26645 -13.24917,41.95573 l -3.52534,5.98971 -1.38154,15.18711 c -0.75985,8.35292 -1.38628,16.56601 -1.39207,18.25132 -0.008,2.33683 3.21821,11.06893 13.59119,36.78571 l 13.60172,33.72152 21.07621,28.57143 c 19.41938,26.32538 22.08572,30.30442 33.91785,50.61625 12.49273,21.44588 13.06301,22.28037 20.98987,30.71429 4.90952,5.22357 11.6769,13.63789 17.02595,21.16946 4.88275,6.875 9.48785,13.04307 10.23358,13.70682 0.74572,0.66375 5.85202,2.78203 11.34734,4.70729 l 9.99147,3.50046 7.70359,10.82843 c 4.23698,5.95564 7.88844,10.82843 8.11437,10.82843 0.22592,0 6.08072,-1.64048 13.01068,-3.64551 l 0,0 z"
       id="path4073"
       inkscape:connector-curvature="0" />
    <path
       style="fill:#07d286;fill-opacity:1;stroke:none"
       d="m 385.24514,850.93467 -19.81598,-15.12761 -15.54117,-17.16541 c -8.54764,-9.44098 -15.98231,-17.70842 -16.52149,-18.37208 -0.9184,-1.13046 2.04795,-1.20667 46.96429,-1.20667 34.5963,0 47.9446,0.22029 47.9446,0.79126 0,0.43519 -2.06342,5.17626 -4.58538,10.53571 -2.52196,5.35945 -5.10731,11.83374 -5.74522,14.38731 -1.54227,6.17376 -11.94735,40.23005 -12.47192,40.82112 -0.22647,0.25519 -9.32895,-6.34345 -20.22773,-14.66363 l 0,0 z"
       id="path4075"
       inkscape:connector-curvature="0" />
    <path
       style="fill:#07d286;fill-opacity:1;stroke:none"
       d="m 400.74576,861.83855 c -2.33236,-1.63383 -11.18425,-8.22052 -19.67085,-14.6371 l -15.4302,-11.66652 -15.92383,-17.7003 -15.92382,-17.70031 21.70345,-0.37292 21.70345,-0.37293 -22.5,-0.20192 -22.5,-0.20193 -20.62059,-25.13943 -20.6206,-25.13944 -13.04657,-26.07143 c -11.70011,-23.38073 -13.36843,-26.32862 -16.16512,-28.56352 -9.22932,-7.37537 -20.18044,-19.13708 -40.68117,-43.6924 l -11.72309,-14.04165 -3.3693,-9.88693 c -4.46563,-13.10402 -5.0063,-15.4336 -8.42838,-36.3155 -2.54658,-15.53947 -3.43977,-19.34045 -6.88182,-29.28571 -2.17548,-6.28571 -6.55021,-18.927 -9.72162,-28.09174 l -5.76619,-16.66317 0.91482,-7.69266 c 0.95746,-8.05115 0.57907,-15.04422 -1.79756,-33.2213 -1.31043,-10.02249 -1.36425,-9.47428 1.05275,-10.72417 1.61142,-0.83329 4.86074,-5.97637 14.56519,-23.05405 l 12.49104,-21.98148 2.61502,-11.42857 c 6.65812,-29.09841 10.25139,-41.45145 19.33256,-66.46205 15.32936,-42.21882 24.52173,-69.75482 28.90098,-86.57367 l 0.79043,-3.03571 54.12303,0 54.12302,0 28.20815,13.06392 c 15.51447,7.18515 34.94136,16.78627 43.17086,21.33582 8.22951,4.54955 18.81988,10.3077 23.53416,12.7959 4.71429,2.48819 14.85718,8.6035 22.53976,13.58958 17.98059,11.66958 23.99192,14.80913 29.96293,15.64876 7.24443,1.0187 16.44258,3.94237 26.12293,8.30329 l 8.87438,3.99784 0,8.38177 c 0,9.23732 0.65198,11.95359 9.8644,41.0974 l 4.06418,12.85715 -0.0667,35.71428 c -0.095,50.83299 -1.98039,77.89524 -8.01192,115 -0.56609,3.48241 -13.96805,39.81887 -15.35059,41.61972 -0.38231,0.49799 -5.01388,3.36085 -10.29237,6.3619 -7.43485,4.22705 -11.47649,6.00777 -17.93781,7.9033 -8.9608,2.62881 -16.38524,5.52616 -27.46413,10.71775 l -6.98071,3.27117 -4.5816,8.12027 -4.5816,8.12027 -6.44548,26.58567 c -13.81752,56.99322 -20.0348,85.5025 -25.07632,114.98723 -1.52902,8.94229 -2.97627,16.57622 -3.2161,16.96429 -0.26868,0.4347 -9.12608,0.77008 -23.0725,0.8736 l -22.63641,0.16802 22.32143,0.19929 c 12.27678,0.10962 22.32143,0.32501 22.32143,0.47864 0,0.15364 -1.89856,4.72942 -4.21901,10.1684 -2.32046,5.43898 -5.35024,13.58548 -6.73285,18.10334 -8.79189,28.72859 -10.67205,34.73919 -11.12083,35.5517 -0.36503,0.66086 -1.65903,0.0983 -4.74266,-2.06176 l -3e-5,0 z m -0.33475,-111.85807 c 4.52184,-1.38865 9.37022,-2.83076 10.77418,-3.2047 l 2.55264,-0.67987 0.81966,-7.98079 c 0.45081,-4.38944 1.49767,-18.26651 2.32636,-30.83794 l 1.50671,-22.85714 15.3231,-30.35714 15.3231,-30.35715 12.86129,-13.74675 12.86129,-13.74675 6.00772,-12.21573 c 6.06355,-12.32929 8.70421,-19.54405 16.8382,-46.00505 l 4.39136,-14.28572 2.15577,-23.92857 2.15578,-23.92857 -1.96178,-15.21408 c -2.24629,-17.42056 -2.25928,-17.14328 1.8308,-39.07163 1.53879,-8.25 2.79957,-15.48215 2.80173,-16.07143 0.002,-0.58929 -2.83198,-2.8981 -6.29809,-5.13067 -9.90115,-6.37751 -40.59217,-24.59618 -55.11972,-32.71992 -36.27297,-20.28368 -44.06275,-25.13211 -56.69678,-35.28853 -11.08177,-8.90856 -18.1305,-16.28275 -35.57542,-37.21803 -8.8387,-10.60714 -18.45348,-21.53571 -21.36617,-24.28571 -9.2409,-8.72474 -20.56479,-16.52268 -25.01636,-17.22695 l -2.4167,-0.38233 -5.30701,12.37607 c -9.30416,21.69755 -24.68519,56.22895 -31.1243,69.87607 -16.61977,35.22413 -16.49356,34.88302 -25.06761,67.7511 -12.64559,48.4761 -14.91902,56.14566 -19.19296,64.7489 l -3.90329,7.85714 -1.09527,13.38034 c -1.45196,17.7378 -1.39778,20.12407 0.58938,25.95884 0.92657,2.72059 6.90177,18.05603 13.27823,34.07876 l 11.59356,29.13222 17.86086,24.32974 c 21.22979,28.91883 25.64728,35.48186 39.36033,58.47724 10.81239,18.13128 11.79146,19.51956 22.00111,31.19655 3.37474,3.85975 10.2259,12.48202 15.22482,19.1606 4.99891,6.67857 9.89338,12.56627 10.87659,13.08377 0.98322,0.51751 5.70348,2.347 10.48947,4.06555 6.47462,2.32489 9.11032,3.63801 10.29792,5.1305 0.87786,1.10324 4.51143,5.97588 8.0746,10.82809 l 6.47849,8.82219 2.63244,-0.49384 c 1.44785,-0.27162 6.33213,-1.63002 10.85397,-3.01868 l 0,0 z"
       id="path4077"
       inkscape:connector-curvature="0" />
    <path
       style="fill:#07d286;fill-opacity:1;stroke:none"
       d="m 400.76854,861.85451 c -3.67448,-2.57399 -25.94326,-19.20254 -32.36794,-24.16981 -1.30614,-1.00985 -9.64931,-9.8718 -18.54037,-19.69323 l -16.16557,-17.85715 18.18322,-0.37565 18.18323,-0.37566 -18.92857,-0.18684 -18.92858,-0.18683 -20.58564,-25.09462 -20.58563,-25.09462 -12.8745,-25.68569 C 266.36781,699.61162 264.97416,697.17083 261.60776,694.14867 248.67025,682.5341 240.00518,673.18963 220.68909,650.02176 l -11.40895,-13.684 -4.02382,-12.03029 c -3.49118,-10.4378 -4.46609,-14.67775 -7.36492,-32.03029 -2.80041,-16.76346 -3.89763,-21.61827 -6.7802,-30 -1.89151,-5.5 -6.24987,-18.14187 -9.68524,-28.09305 l -6.24614,-18.09305 0.92081,-7.74302 c 0.96777,-8.13791 0.69255,-13.07607 -1.86839,-33.52361 -1.06918,-8.5367 -1.06082,-8.91651 0.21541,-9.7886 2.86654,-1.95881 4.26361,-4.09894 15.72618,-24.09061 l 11.85935,-20.68367 4.16105,-17.40879 c 7.07476,-29.59896 8.93846,-35.87371 18.58177,-62.5615 15.41245,-42.65388 24.44921,-69.72719 28.484,-85.33553 l 0.78474,-3.03571 54.16242,0 54.16243,0 26.34575,12.18487 c 25.89744,11.97751 35.00918,16.53237 50.63148,25.31011 4.32143,2.42809 12.03572,6.6124 17.14286,9.29845 5.10714,2.68606 15.19627,8.73269 22.42028,13.43697 15.62838,10.17721 24.99309,15.2407 29.37102,15.88088 9.07514,1.32707 18.68229,4.42466 29.92746,9.64939 l 6.49552,3.01795 0,7.96062 c 0,9.25906 0.13831,9.86671 8.05818,35.40362 l 5.8704,18.92857 -0.0667,35.71428 c -0.0899,48.08975 -1.20732,66.73317 -6.10086,101.78572 l -2.24366,16.07143 -7.15661,18.92857 c -3.93613,10.41071 -7.47158,19.33601 -7.85655,19.834 -0.38497,0.49799 -4.99229,3.34583 -10.23849,6.32853 -7.53977,4.28669 -11.59795,6.05787 -19.36639,8.45245 -9.24063,2.84837 -21.74302,7.878 -29.82784,11.99955 -3.30228,1.68347 -3.90688,2.43369 -8.02273,9.955 -4.30471,7.86642 -4.60599,8.76845 -9.14833,27.38953 -13.18294,54.04271 -21.51896,91.97602 -26.31705,119.75654 -1.74393,10.09715 -3.379,18.69537 -3.63349,19.10714 -0.29831,0.48269 -6.85563,0.80749 -18.45627,0.91419 l -17.99356,0.16551 17.67857,0.20411 c 9.72322,0.11227 17.67858,0.35483 17.67858,0.53903 0,0.1842 -1.93865,4.86724 -4.3081,10.40675 -2.36946,5.53952 -6.40074,17.03498 -8.9584,25.54547 -4.8357,16.09046 -8.86419,28.68791 -9.17402,28.68791 -0.0989,0 -2.05733,-1.3152 -4.35208,-2.92267 z m 1.83755,-112.55809 11.14944,-3.3088 0.82818,-8.28379 c 0.4555,-4.55608 1.50486,-18.39468 2.33193,-30.75243 l 1.50374,-22.46863 15.24674,-30.38851 15.24674,-30.38851 12.88448,-13.73743 12.8845,-13.73743 5.10655,-10.19114 c 6.65262,-13.27664 8.715,-18.73447 16.06854,-42.52352 l 6.1237,-19.81048 2.15138,-23.57143 2.15138,-23.57142 -1.9765,-15.84205 c -2.24843,-18.02175 -2.27189,-17.59154 2.26766,-41.58568 1.36751,-7.2281 2.31975,-13.57626 2.11609,-14.10702 -0.87492,-2.27998 -30.37393,-19.93742 -83.27239,-49.84495 -20.8531,-11.78984 -35.37206,-22.30651 -47.89427,-34.69173 -3.37622,-3.33929 -13.58179,-14.95492 -22.67904,-25.81252 -9.09726,-10.8576 -18.85708,-21.88591 -21.68848,-24.50735 -9.33501,-8.64279 -19.9126,-15.8624 -24.25008,-16.5516 l -2.4167,-0.384 -5.29394,12.37773 c -8.68595,20.30857 -24.4696,55.74931 -31.12028,69.87774 -9.36755,19.90005 -14.97718,32.61615 -17.01553,38.57143 -1.00849,2.94642 -4.76593,16.60714 -8.34986,30.35714 -12.07824,46.33903 -14.64712,54.97979 -18.89964,63.57143 l -3.88897,7.85714 -1.10875,13.38034 c -1.46847,17.72142 -1.4149,20.11587 0.58067,25.95884 0.92918,2.72059 6.91846,18.06282 13.30951,34.09383 l 11.6201,29.1473 18.07934,24.64518 c 21.03913,28.6799 25.37591,35.11372 37.98055,56.34594 10.35023,17.43473 13.39466,21.80027 22.44216,32.18081 3.40587,3.9077 10.4773,12.7299 15.71428,19.6049 10.51489,13.80373 9.87996,13.29992 22.49011,17.84537 5.61167,2.02277 8.18575,3.34391 9.34208,4.79479 0.87786,1.10149 4.51413,5.97634 8.0806,10.83301 7.56198,10.29758 4.89045,9.74076 22.15398,4.6175 l 0,0 z"
       id="path4079"
       inkscape:connector-curvature="0" />
    <path
       style="fill:#07d286;fill-opacity:1;stroke:none"
       d=""
       id="path4081"
       inkscape:connector-curvature="0" />
    <path
       style="fill:#07d286;fill-opacity:1;stroke:none"
       d="m 400.77539,861.86506 c -2.35714,-1.6496 -11.14018,-8.15634 -19.51785,-14.45941 -15.20656,-11.4409 -15.25906,-11.48986 -31.25,-29.14751 -8.80983,-9.72804 -16.01786,-17.86592 -16.01786,-18.08416 0,-0.21824 6.50893,-0.46767 14.46428,-0.5543 l 14.46429,-0.1575 -15.45592,-0.37821 -15.45592,-0.37822 -20.40279,-24.79153 -20.40279,-24.79153 -12.87259,-25.62967 -12.8726,-25.62967 -8.69403,-8.1365 c -9.76381,-9.13767 -19.3134,-19.63113 -36.13032,-39.7014 l -11.46274,-13.6803 -3.95475,-12.03398 c -3.3026,-10.04954 -4.50258,-15.2471 -7.27687,-31.51875 -3.82311,-22.42312 -3.52196,-21.27765 -11.77871,-44.80095 -3.44735,-9.82143 -7.31368,-21.03022 -8.59183,-24.90843 l -2.32391,-7.05128 0.87461,-8.66301 c 0.81106,-8.03355 0.73904,-9.84195 -0.9912,-24.88873 l -1.86581,-16.22572 2.96764,-3.05999 c 1.78363,-1.83914 7.52999,-11.0394 14.40296,-23.05999 l 11.43533,-20 3.38187,-14.28571 c 7.0873,-29.93818 9.91371,-39.50366 19.85273,-67.188 15.63537,-43.55105 24.04282,-68.72813 27.9518,-83.70486 l 0.79233,-3.03571 54.24251,0 54.24251,0 27.49346,12.7753 c 15.12141,7.02641 33.85168,16.25148 41.62282,20.50014 7.77115,4.24866 18.95078,10.32326 24.84364,13.49911 5.89286,3.17586 15.69643,9.0182 21.78571,12.98299 19.90117,12.95784 25.84715,15.94486 33.92087,17.04049 5.13513,0.69685 16.71059,4.63882 25.18628,8.57705 l 7.32142,3.40192 0,7.67616 c 0,9.01644 0.90152,12.89536 8.70977,37.47541 l 5.21881,16.42857 -0.0688,36.42857 c -0.0919,48.66167 -1.12253,65.91917 -6.07861,101.78572 l -2.22077,16.07143 -7.17201,18.92857 c -3.9446,10.41071 -7.68676,19.46215 -8.3159,20.1143 -0.62915,0.65215 -5.00105,3.38232 -9.71533,6.06703 -6.53709,3.72278 -11.45342,5.83803 -20.71429,8.91232 -6.67857,2.21706 -16.52378,6.01607 -21.87823,8.44224 l -9.73539,4.41122 -4.71101,8.34143 c -4.44228,7.86561 -4.89884,9.11596 -8.00361,21.9193 -15.80534,65.17751 -22.82476,97.18046 -28.46894,129.79556 -1.33964,7.74115 -2.64335,14.41079 -2.89713,14.82143 -0.2883,0.46647 -5.47053,0.80716 -13.81213,0.90802 l -13.3507,0.16143 13.03571,0.21182 c 7.16965,0.11651 13.03572,0.35378 13.03572,0.52725 0,0.17348 -2.04234,5.22873 -4.53852,11.23389 -2.49619,6.00516 -7.14355,19.48621 -10.32746,29.95789 -3.18391,10.47167 -6.20409,20.05378 -6.71148,21.29357 l -0.92256,2.25415 -4.28572,-2.99926 0,0 z m 0,-112.06642 c 14.54687,-4.34064 12.87902,-2.77305 13.83257,-13.00096 0.45155,-4.84341 1.29571,-15.71693 1.87593,-24.16336 0.58021,-8.44642 1.26068,-18.25 1.51216,-21.78571 l 0.45724,-6.42857 15.22437,-30.35714 15.22438,-30.35715 12.93742,-13.83294 c 12.72796,-13.609 13.01211,-13.98202 17.55189,-23.04164 6.51301,-12.99739 9.40033,-20.60452 16.41645,-43.25187 l 6.1568,-19.87355 2.15337,-23.57143 2.15338,-23.57142 -1.95383,-15.56488 c -2.23448,-17.80069 -2.25233,-17.40791 1.78979,-39.41068 1.5853,-8.62942 2.88237,-15.95242 2.88237,-16.27332 0,-1.42625 -31.48195,-20.60826 -63.57143,-38.7342 -35.01749,-19.77985 -41.75475,-23.99717 -54.29199,-33.98518 -10.60515,-8.44877 -18.50832,-16.65141 -35.09792,-36.42785 -8.09198,-9.64643 -16.57448,-19.54992 -18.85,-22.00776 -7.87258,-8.50332 -23.38583,-19.76327 -28.30427,-20.54401 l -2.38439,-0.37849 -6.36694,14.87747 c -9.73021,22.73635 -22.78363,51.94892 -33.45844,74.87747 -5.30416,11.39285 -10.81049,23.84089 -12.23629,27.6623 -1.4258,3.82142 -6.27152,20.85713 -10.76825,37.85715 -12.28139,46.43015 -14.18663,52.74262 -18.16765,60.19335 l -3.46857,6.49162 -1.24907,15.5619 c -0.68698,8.55904 -1.05034,17.01175 -0.80746,18.78379 0.46183,3.36939 6.09593,18.27367 19.04937,50.39261 l 7.69714,19.08558 12.78889,17.34299 c 25.9917,35.24731 28.21297,38.51641 43.70663,64.32429 10.6848,17.79775 12.24054,20.00758 22.23963,31.59013 3.39149,3.92857 9.73591,11.80357 14.09869,17.5 12.12809,15.83547 10.64214,14.59753 22.80822,19.00147 3.72689,1.34908 7.33473,2.75181 8.01743,3.11717 0.6827,0.36538 4.5053,5.15336 8.49468,10.63998 3.98937,5.48662 7.65777,10.14533 8.15198,10.3527 1.22944,0.51586 3.01868,0.11395 13.75572,-3.08986 l 0,0 z"
       id="path4083"
       inkscape:connector-curvature="0" />
    <path
       style="fill:#07d286;fill-opacity:1;stroke:none"
       d="m 385.23671,850.46372 -19.04929,-14.31347 -16.09887,-17.78698 c -8.85438,-9.78284 -16.09887,-17.96678 -16.09887,-18.18654 0,-0.21975 4.90178,-0.46808 10.89286,-0.55186 l 10.89285,-0.1523 -11.92608,-0.38341 -11.92609,-0.38341 -20.26473,-24.64285 -20.26474,-24.64286 -13.05344,-25.81857 -13.05344,-25.81858 -9.31925,-8.79394 c -9.49526,-8.96005 -20.74046,-21.40359 -37.53187,-41.53148 l -9.38372,-11.24828 -3.88483,-11.96601 c -3.02771,-9.32594 -4.54256,-15.74823 -6.866,-29.10886 -4.2382,-24.3712 -4.27269,-24.49927 -14.13754,-52.5 l -8.93349,-25.35714 0.81955,-8.57143 c 0.85403,-8.9319 0.62421,-13.12503 -1.81824,-33.17475 l -1.16988,-9.60333 1.58265,-1.05083 c 2.27673,-1.51169 4.28949,-4.66274 16.46233,-25.77232 l 10.89116,-18.88695 3.07548,-12.9518 c 7.17884,-30.2323 10.34594,-41.08595 19.27632,-66.06002 13.70486,-38.32603 20.71085,-58.88313 25.39635,-74.51845 2.33409,-7.78871 4.24379,-14.29764 4.24379,-14.46428 0,-0.16664 24.46456,-0.30298 54.36568,-0.30298 l 54.36569,0 27.5986,12.86088 c 31.82063,14.82833 69.95603,35.23367 90.03979,48.17813 16.58115,10.68693 23.88827,14.39874 30.3057,15.39442 6.89545,1.06986 17.3782,4.55119 26.36025,8.75427 l 7.67857,3.59314 0.005,7.21672 c 0.006,8.84827 1.08508,13.57436 8.41487,36.85958 l 5.5087,17.5 -0.0678,36.07143 c -0.0924,49.21189 -1.09918,66.16144 -6.06682,102.14286 l -2.21882,16.07143 -7.15514,18.92857 c -3.93532,10.41071 -7.6808,19.46413 -8.32328,20.1187 -0.64248,0.65457 -5.06564,3.41109 -9.82926,6.12561 -6.47171,3.68787 -11.45058,5.85474 -19.69608,8.57203 -6.06923,2.0001 -15.8574,5.76149 -21.75151,8.35864 l -10.71656,4.72208 -4.34281,7.70816 c -5.18516,9.20327 -4.96095,8.48113 -13.11856,42.25192 -11.37871,47.10548 -19.29495,83.89081 -23.90266,111.07143 -1.06557,6.28571 -2.20629,12.15178 -2.53494,13.03571 -0.57426,1.54451 -0.96709,1.6132 -10.07951,1.76238 l -9.48197,0.15524 9.10714,0.22325 c 5.00893,0.12278 9.10715,0.34338 9.10715,0.49021 0,0.14683 -2.06049,5.36044 -4.57886,11.5858 -2.51836,6.22536 -6.3961,17.26527 -8.61719,24.53312 -5.93907,19.43391 -9.00032,28.57143 -9.57199,28.57143 -0.27888,0 -9.07924,-6.44106 -19.55636,-14.31346 l 0,0 z m 14.2239,-100.35085 c 6.20063,-1.77965 11.96097,-3.68594 12.80077,-4.2362 1.72902,-1.1329 2.27051,-5.49147 4.21857,-33.95663 0.57804,-8.44643 1.25326,-18.07991 1.50048,-21.40774 l 0.44948,-6.05058 15.22453,-30.37799 15.22453,-30.37798 12.98239,-13.92857 12.9824,-13.92857 5.58943,-11.42857 c 6.1465,-12.56764 8.21985,-18.16722 16.13315,-43.57143 l 5.33992,-17.14286 2.15491,-23.85472 2.15491,-23.85472 -1.82749,-14.44155 c -1.00511,-7.94285 -1.82748,-15.72655 -1.82748,-17.29711 0,-2.28265 3.96442,-26.26869 6.13628,-37.12647 0.44967,-2.24808 0.33231,-2.36996 -6.58923,-6.84213 -10.9337,-7.06455 -30.3011,-18.56459 -53.23961,-31.6128 -38.68684,-22.0064 -45.09998,-26.01468 -57.8275,-36.14283 -10.4953,-8.35182 -18.39041,-16.49445 -33.83823,-34.8991 -22.68918,-27.03206 -26.66847,-31.01022 -39.19421,-39.18311 -5.02545,-3.27905 -10.79498,-5.83089 -11.39162,-5.03847 -0.12134,0.16116 -2.5727,5.7573 -5.44746,12.43587 -10.08538,23.43009 -24.25791,55.19552 -33.78084,75.71429 -5.28753,11.39285 -10.77138,23.60842 -12.18633,27.14569 -1.41496,3.53728 -5.51108,17.51942 -9.1025,31.07143 -13.52928,51.05211 -16.12446,59.79221 -20.25387,68.21145 l -3.85372,7.85714 -1.26536,16.42857 -1.26536,16.42857 1.99266,5.97417 c 1.09596,3.28579 7.19465,19.03579 13.55263,35 l 11.55998,29.02583 17.06874,23.21429 c 20.70691,28.16236 26.29528,36.41294 38.17188,56.35634 10.5888,17.78093 14.14801,22.95419 21.92354,31.8656 3.08871,3.53993 9.43803,11.41493 14.10958,17.5 13.47492,17.55213 12.02576,16.42399 29.49205,22.95897 3.64657,1.36435 4.25478,1.9811 11.04774,11.20289 6.14836,8.34671 8.81603,11.54477 9.6301,11.54477 0.097,0 5.24954,-1.45608 11.45016,-3.23574 l 0,0 z"
       id="path4085"
       inkscape:connector-curvature="0" />
    <path
       style="fill:#07d286;fill-opacity:1;stroke:none"
       d="m 385.05739,850.3129 -19.22293,-14.46429 -15.88167,-17.5 c -8.73493,-9.625 -15.90001,-17.73147 -15.9224,-18.01437 -0.0224,-0.28291 4.0575,-0.61484 9.06643,-0.73762 l 9.10714,-0.22325 -10,-0.15558 -10,-0.15558 -20.40937,-24.82109 -20.40936,-24.82108 -13.07615,-25.84403 -13.07615,-25.84403 -9.29228,-8.76849 c -9.40949,-8.87909 -20.48194,-21.11821 -37.4875,-41.43742 l -9.35651,-11.17969 -3.90713,-12.0346 c -3.05238,-9.40183 -4.55923,-15.78488 -6.88793,-29.17746 -4.06829,-23.39709 -4.71307,-25.78105 -14.17025,-52.3916 -9.13782,-25.71194 -8.44544,-22.14426 -7.99181,-41.17982 0.13444,-5.6415 -0.34579,-13.18088 -1.4049,-22.05625 l -1.60915,-13.48483 1.77513,-1.51517 c 2.48002,-2.11684 4.5971,-5.44763 16.41333,-25.82285 l 10.36864,-17.8791 6.77288,-27.1209 c 5.80631,-23.25042 7.86818,-30.17902 14.44777,-48.54948 16.48388,-46.02365 24.71468,-70.45505 30.01968,-89.10714 l 1.16815,-4.10714 54.4136,0.0157 54.4136,0.0157 27.85714,13.03985 c 31.25692,14.63127 66.71037,33.5039 86.78572,46.19787 21.79095,13.7788 25.59434,15.72298 33.57143,17.1608 7.0253,1.26627 17.33585,4.75364 25.89285,8.75782 l 7.67857,3.59314 0.0124,6.85958 c 0.0161,8.92949 0.94964,13.09545 8.01924,35.78815 l 5.89693,18.92857 -0.0706,36.07143 c -0.0961,49.08073 -1.09232,65.89941 -6.06893,102.45779 l -2.1334,15.67206 -7.19537,18.97079 c -3.95746,10.43393 -7.72104,19.50437 -8.36353,20.15652 -0.64248,0.65215 -5.00468,3.36848 -9.69377,6.03629 -6.20093,3.52795 -11.75175,5.95109 -20.35714,8.88665 -14.05763,4.79548 -31.20319,12.17683 -32.54715,14.01191 -0.52687,0.71939 -2.75122,4.71875 -4.94301,8.88746 -3.72995,7.09425 -4.32513,8.96904 -9.29711,29.28572 -11.72349,47.90479 -20.38062,87.24261 -25.05494,113.8491 -1.44938,8.25 -3.0042,16.60714 -3.45513,18.57142 l -0.81989,3.57143 -7.85714,0.39452 -7.85715,0.39452 7.32143,0.1412 c 4.02679,0.0777 7.32143,0.27783 7.32143,0.44482 0,0.167 -1.74828,4.60023 -3.88507,9.85162 -3.77525,9.27808 -5.97166,15.75387 -14.30166,42.16618 -2.19923,6.97321 -4.24509,12.67857 -4.54634,12.67857 -0.30126,0 -9.19805,-6.50893 -19.77065,-14.46428 l -1e-5,0 z m 15.69377,-100.629 c 5.87954,-1.6899 11.21665,-3.59914 11.86026,-4.24275 1.51997,-1.51996 1.90134,-5.31126 4.98211,-49.52705 l 0.79173,-11.36309 15.24346,-30.42263 15.24347,-30.42263 12.92602,-13.92246 c 13.75025,-14.81024 14.7039,-16.20845 21.68378,-31.79182 4.08552,-9.12141 6.49638,-15.9689 13.0772,-37.14286 l 5.32797,-17.14286 2.16923,-23.81706 2.16922,-23.81707 -1.83225,-14.4792 c -1.00774,-7.96357 -1.83225,-15.75572 -1.83225,-17.31591 0,-1.56018 1.44497,-11.00514 3.21105,-20.98881 l 3.21105,-18.15211 -1.60391,-1.26549 c -4.86524,-3.8387 -37.14382,-23.14803 -66.24676,-39.6294 -30.2627,-17.13815 -37.65388,-21.81545 -50.09149,-31.699 -10.53649,-8.37281 -18.12159,-16.25516 -35.99671,-37.40738 -8.6318,-10.21428 -18.13472,-20.98214 -21.11759,-23.92857 -8.26952,-8.16849 -22.57044,-17.87797 -26.28773,-17.84782 -0.76085,0.006 -1.98054,1.99805 -3.60838,5.89286 -5.7655,13.79456 -24.92883,56.92322 -34.67645,78.04222 -16.09273,34.86614 -15.75314,33.90783 -26.72197,75.40771 -10.05056,38.02569 -13.19248,48.34843 -17.0638,56.06293 l -3.56178,7.09767 -1.23443,15.89326 c -0.99099,12.75894 -1.06727,16.56104 -0.38681,19.27936 0.90223,3.60426 8.82569,24.29971 19.61898,51.24324 l 6.58111,16.42857 16.99367,23.10813 c 20.40446,27.74616 26.11604,36.16778 37.99063,56.01654 11.25095,18.80635 13.56104,22.15953 22.70212,32.95307 4.02288,4.7501 11.07755,13.52166 15.67705,19.49236 4.59949,5.97069 9.53053,11.81842 10.95786,12.99495 1.42734,1.17652 4.71382,2.92997 7.30329,3.89654 14.20325,5.30163 12.37757,4.04 19.11706,13.21089 7.37954,10.04187 10.15967,13.07314 11.62677,12.67709 0.60895,-0.16438 5.9177,-1.68152 11.79722,-3.37142 l 0,0 z"
       id="path4087"
       inkscape:connector-curvature="0" />
    <path
       style="fill:none;stroke:#000000;stroke-width:3;stroke-linecap:butt;stroke-linejoin:miter;stroke-miterlimit:4;stroke-opacity:1;stroke-dasharray:none"
       d="m 208.09142,165.44825 -10.10152,66.67007 -10.10153,10.10152 -2.0203,30.30458 -32.32488,58.58885 -50.50763,76.77159 -34.345187,24.24366 52.527937,171.72593 62.62945,149.50258 36.36549,34.34519 52.52794,76.77159 70.71068,54.54824 68.69037,38.38579 46.46702,20.20305 56.56854,-117.17769 32.32488,-84.85281 4.04061,-36.3655 18.18275,-16.16244 18.18274,-74.75129 12.12183,-46.46701 18.18275,-42.42641 4.04061,-34.34519 -6.06092,-103.03556 -2.0203,-149.50257 -32.32488,12.12183 -54.54824,-48.48732 -78.7919,-46.46702 -94.95434,-34.34519 -64.64976,-10.10152 -48.48732,8.08122 z"
       id="path4089"
       inkscape:connector-curvature="0" />
    <path
       style="fill:#b82919;fill-opacity:1;stroke:none"
       d="M 432.40552,963.34943 C 389.7015,944.09617 348.40392,919.28979 310.53545,890.14529 L 274.52834,862.43336 248.43815,824.0731 C 227.42787,793.18178 218.82438,782.42489 204.251,768.82612 L 186.15403,751.9394 154.86415,677.21374 C 126.0676,608.44256 121.53911,595.84262 98.034112,519.09131 83.987024,473.2231 72.788121,434.86837 73.14766,433.85862 c 0.35954,-1.00975 7.472238,-6.66523 15.805996,-12.56771 14.329074,-10.14876 16.579194,-12.88601 41.416254,-50.38259 14.44518,-21.80792 33.29864,-52.43978 41.89658,-68.0708 14.32128,-26.03602 15.74103,-29.65832 16.92491,-43.18174 1.02447,-11.70237 2.30347,-15.84991 6.17132,-20.01243 4.15687,-4.47353 5.6212,-10.13751 9.89321,-38.26651 2.7578,-18.15869 5.21938,-33.20587 5.47018,-33.43819 3.70832,-3.43502 31.74745,-12.08072 48.94333,-15.09139 28.17772,-4.93338 32.18233,-4.86756 67.68022,1.11236 24.71851,4.16406 36.40824,7.5491 74.83632,21.67071 40.73266,14.96851 49.55596,19.0826 83.55388,38.95917 32.65071,19.08893 41.94826,25.71396 65.92043,46.97209 15.34963,13.61181 29.23568,24.74874 30.85788,24.74874 1.6222,0 8.82142,-2.2102 15.99825,-4.91155 l 13.04879,-4.91156 1.34851,80.16793 c 0.74169,44.09235 2.60613,100.16893 4.14322,124.61462 3.53115,56.15937 2.05449,69.29838 -11.35296,101.01525 -6.68133,15.8055 -13.59146,39.11689 -23.92793,80.72107 l -14.53361,58.49771 -8.95207,8.17236 c -8.89755,8.12255 -8.96854,8.29547 -11.649,28.37541 -2.22009,16.63125 -5.53067,27.52524 -18.72548,61.6193 -17.11532,44.22426 -68.58512,153.64331 -72.15475,153.3929 -1.17833,-0.0827 -11.68836,-4.45411 -23.35562,-9.71434 z M 417.24487,843.83235 c 4.72444,-14.95555 10.54379,-31.63443 12.93183,-37.06414 2.38806,-5.42971 5.1993,-15.88479 6.24717,-23.23351 5.52018,-38.71246 29.26125,-137.73593 35.71202,-148.954 4.15698,-7.22914 6.87112,-9.13962 20.80866,-14.64721 8.81546,-3.48355 17.12318,-6.33374 18.46157,-6.33374 1.33841,0 8.09774,-3.16765 15.02076,-7.03923 12.54503,-7.01557 12.61234,-7.10212 20.0364,-25.75889 10.90844,-27.41305 15.10164,-58.70269 16.58747,-123.77552 l 1.1994,-52.52793 -7.33347,-23.37896 c -4.36976,-13.93073 -7.33346,-27.49516 -7.33346,-33.5642 l 0,-10.18527 -11.88645,-5.33431 c -6.53754,-2.93388 -16.42023,-6.19414 -21.96154,-7.24502 -9.33377,-1.77012 -27.54416,-10.85679 -34.99167,-17.46024 -1.74885,-1.55065 -13.11307,-8.29467 -25.25381,-14.98671 -22.23853,-12.258 -27.56373,-14.91738 -91.56289,-45.72623 -19.32899,-9.30487 -39.78458,-20.27685 -45.45687,-24.38218 -9.99241,-7.23204 -40.94314,-24.81816 -43.67877,-24.81816 -0.74263,0 -2.49716,3.86384 -3.89897,8.5863 -3.09644,10.43144 -5.52325,13.63706 -10.32389,13.63706 -3.88135,0 -4.23809,0.80998 -8.00834,18.18275 -4.25104,19.5882 -15.33277,54.52024 -29.80257,93.94418 -7.74882,21.11219 -16.60562,49.23502 -19.68178,62.49517 -4.64029,20.00256 -7.49394,27.4016 -16.75249,43.43656 -6.13771,10.62996 -12.78341,20.69089 -14.76822,22.35765 -3.25385,2.73244 -3.4038,4.61989 -1.52478,19.19289 1.14618,8.88935 1.67354,21.1627 1.17191,27.27412 -0.77371,9.42614 0.46054,14.94244 8.13661,36.36549 4.9814,13.90255 11.14901,36.60508 13.72142,50.50763 6.99264,37.79159 9.05718,42.37232 30.73807,68.20051 10.50039,12.509 23.4539,26.60063 28.78557,31.31473 7.61481,6.73279 12.51587,14.20412 22.85117,34.83505 10.88748,21.73319 17.0782,30.96899 35.88629,53.53808 12.501,15.00077 28.99676,34.09265 36.65725,42.42641 13.80923,15.02291 55.52871,48.915 58.9147,47.86115 0.96898,-0.30159 5.62724,-12.78471 10.3517,-27.74028 l 0,0 z"
       id="path4091"
       inkscape:connector-curvature="0" />
  </g>
</svg>
